<svg width="2116" height="1138" xmlns="http://www.w3.org/2000/svg" xmlns:xlink="http://www.w3.org/1999/xlink" xml:space="preserve" overflow="hidden"><defs><clipPath id="clip0"><rect x="1259" y="737" width="2116" height="1138"/></clipPath></defs><g clip-path="url(#clip0)" transform="translate(-1259 -737)"><text font-family="Arial,Arial_MSFontService,sans-serif" font-weight="700" font-size="248" transform="matrix(1 0 0 1 2950.84 1233)">23</text><path d="M1941 868.5C1941 808.577 1989.35 760 2049 760 2108.65 760 2157 808.577 2157 868.5 2157 928.423 2108.65 977 2049 977 1989.35 977 1941 928.423 1941 868.5Z" stroke="#2F528F" stroke-width="45.8333" stroke-miterlimit="8" fill="none" fill-rule="evenodd"/><path d="M1425 1401.5C1425 1281.93 1521.93 1185 1641.5 1185 1761.07 1185 1858 1281.93 1858 1401.5 1858 1521.07 1761.07 1618 1641.5 1618 1521.93 1618 1425 1521.07 1425 1401.5Z" stroke="#00B050" stroke-width="45.8333" stroke-miterlimit="8" fill="none" fill-rule="evenodd"/><path d="M1864 1573.5C1864 1490.38 1931.61 1423 2015 1423 2098.4 1423 2166 1490.38 2166 1573.5 2166 1656.62 2098.4 1724 2015 1724 1931.61 1724 1864 1656.62 1864 1573.5Z" stroke="#2F528F" stroke-width="45.8333" stroke-miterlimit="8" fill="#FFFFFF" fill-rule="evenodd"/><path d="M1282 987.5C1282 882.29 1367.07 797 1472 797 1576.93 797 1662 882.29 1662 987.5 1662 1092.71 1576.93 1178 1472 1178 1367.07 1178 1282 1092.71 1282 987.5Z" stroke="#00B050" stroke-width="45.8333" stroke-miterlimit="8" fill="#FFFFFF" fill-rule="evenodd"/><text font-family="Arial,Arial_MSFontService,sans-serif" font-weight="700" font-size="440" transform="matrix(1 0 0 1 1825.05 1510)">VSMD</text><path d="M1697 1053C1697 978.442 1757.44 918 1832 918 1906.56 918 1967 978.442 1967 1053 1967 1127.56 1906.56 1188 1832 1188 1757.44 1188 1697 1127.56 1697 1053Z" stroke="#FF0000" stroke-width="45.8333" stroke-miterlimit="8" fill="#FFFFFF" fill-rule="evenodd"/></g></svg>