<?xml version="1.0" encoding="UTF-8" standalone="no"?>
<svg
   width="587.59418"
   height="302.94998"
   xml:space="preserve"
   overflow="hidden"
   version="1.1"
   id="svg23"
   sodipodi:docname="VSMD23.svg"
   viewBox="0 0 1958.6473 1009.8333"
   inkscape:version="1.2.2 (b0a8486541, 2022-12-01)"
   xmlns:inkscape="http://www.inkscape.org/namespaces/inkscape"
   xmlns:sodipodi="http://sodipodi.sourceforge.net/DTD/sodipodi-0.dtd"
   xmlns="http://www.w3.org/2000/svg"
   xmlns:svg="http://www.w3.org/2000/svg"><sodipodi:namedview
     id="namedview25"
     pagecolor="#ffffff"
     bordercolor="#000000"
     borderopacity="0.25"
     inkscape:showpageshadow="2"
     inkscape:pageopacity="0.0"
     inkscape:pagecheckerboard="0"
     inkscape:deskcolor="#d1d1d1"
     showgrid="false"
     inkscape:zoom="0.67485822"
     inkscape:cx="1058"
     inkscape:cy="569.0084"
     inkscape:window-width="1920"
     inkscape:window-height="1052"
     inkscape:window-x="0"
     inkscape:window-y="0"
     inkscape:window-maximized="1"
     inkscape:current-layer="svg23" /><defs
     id="defs5"><clipPath
       id="clip0"><rect
         x="1259"
         y="737"
         width="2116"
         height="1138"
         id="rect2" /></clipPath></defs><g
     clip-path="url(#clip0)"
     transform="translate(-1259.0833,-737.08335)"
     id="g21"><text
       font-family="Arial, Arial_MSFontService, sans-serif"
       font-weight="700"
       font-size="248px"
       transform="translate(2950.84,1233)"
       id="text7">23</text><path
       d="m 1941,868.5 c 0,-59.923 48.35,-108.5 108,-108.5 59.65,0 108,48.577 108,108.5 0,59.923 -48.35,108.5 -108,108.5 -59.65,0 -108,-48.577 -108,-108.5 z"
       stroke="#2f528f"
       stroke-width="45.8333"
       stroke-miterlimit="8"
       fill="none"
       fill-rule="evenodd"
       id="path9" /><path
       d="m 1425,1401.5 c 0,-119.57 96.93,-216.5 216.5,-216.5 119.57,0 216.5,96.93 216.5,216.5 0,119.57 -96.93,216.5 -216.5,216.5 -119.57,0 -216.5,-96.93 -216.5,-216.5 z"
       stroke="#00b050"
       stroke-width="45.8333"
       stroke-miterlimit="8"
       fill="none"
       fill-rule="evenodd"
       id="path11" /><path
       d="m 1864,1573.5 c 0,-83.12 67.61,-150.5 151,-150.5 83.4,0 151,67.38 151,150.5 0,83.12 -67.6,150.5 -151,150.5 -83.39,0 -151,-67.38 -151,-150.5 z"
       stroke="#2f528f"
       stroke-width="45.8333"
       stroke-miterlimit="8"
       fill="#ffffff"
       fill-rule="evenodd"
       id="path13" /><path
       d="m 1282,987.5 c 0,-105.21 85.07,-190.5 190,-190.5 104.93,0 190,85.29 190,190.5 0,105.21 -85.07,190.5 -190,190.5 -104.93,0 -190,-85.29 -190,-190.5 z"
       stroke="#00b050"
       stroke-width="45.8333"
       stroke-miterlimit="8"
       fill="#ffffff"
       fill-rule="evenodd"
       id="path15" /><text
       font-family="Arial, Arial_MSFontService, sans-serif"
       font-weight="700"
       font-size="440px"
       transform="translate(1825.05,1510)"
       id="text17">VSMD</text><path
       d="m 1697,1053 c 0,-74.558 60.44,-135 135,-135 74.56,0 135,60.442 135,135 0,74.56 -60.44,135 -135,135 -74.56,0 -135,-60.44 -135,-135 z"
       stroke="#ff0000"
       stroke-width="45.8333"
       stroke-miterlimit="8"
       fill="#ffffff"
       fill-rule="evenodd"
       id="path19" /></g></svg>
